<?xml version="1.0" standalone="no"?>
<!DOCTYPE svg PUBLIC "-//W3C//DTD SVG 20010904//EN"
 "http://www.w3.org/TR/2001/REC-SVG-20010904/DTD/svg10.dtd">
<svg version="1.0" xmlns="http://www.w3.org/2000/svg"
 width="700.000000pt" height="700.000000pt" viewBox="0 0 700.000000 700.000000"
 preserveAspectRatio="xMidYMid meet">
<metadata>
Created by potrace 1.11, written by Peter Selinger 2001-2013
</metadata>
<g transform="translate(0.000000,700.000000) scale(0.100000,-0.100000)"
fill="#000000" stroke="none">
<path d="M5560 6993 c-25 -10 -142 -108 -196 -164 -97 -103 -194 -246 -299
-444 -26 -49 -65 -121 -85 -160 -108 -200 -201 -381 -348 -673 -274 -544 -260
-520 -336 -578 -57 -43 -233 -141 -481 -268 -175 -88 -252 -160 -387 -359 -92
-136 -100 -136 107 -14 137 81 426 229 433 222 9 -9 -33 -48 -133 -121 -139
-102 -143 -105 -210 -171 -86 -83 -209 -239 -269 -341 -14 -23 116 62 269 176
121 91 487 383 497 397 26 35 6 -17 -265 -686 -8 -21 -30 -34 -106 -64 -88
-35 -155 -65 -357 -161 -325 -154 -748 -441 -1064 -723 -135 -121 -444 -436
-570 -582 -30 -35 -71 -82 -91 -104 -105 -118 -280 -358 -378 -518 -158 -258
-293 -590 -327 -802 -3 -22 -7 -42 -9 -45 -3 -6 -9 -41 -23 -145 -36 -272 67
-539 242 -625 55 -27 77 -32 153 -35 339 -12 682 225 1165 803 133 160 406
564 563 834 355 610 599 1102 889 1794 l68 162 97 32 c368 124 761 342 1173
652 141 107 206 175 327 343 87 123 89 121 -29 40 -103 -71 -567 -381 -585
-391 -11 -6 -51 -30 -89 -53 -151 -93 -356 -188 -529 -246 -56 -18 -117 -41
-136 -50 -18 -10 -49 -21 -67 -25 -29 -7 -34 -5 -34 9 0 23 254 657 312 781
l45 95 189 152 c203 163 291 243 369 338 62 74 140 194 132 201 -3 3 -27 -9
-53 -28 -62 -44 -97 -66 -107 -67 -17 -2 28 62 84 118 67 68 202 262 275 396
113 205 225 525 248 710 4 28 9 57 11 65 18 69 27 251 14 283 -16 38 -59 55
-99 40z m-260 -615 c0 -7 -9 -52 -19 -99 -60 -269 -172 -535 -314 -743 -56
-81 -231 -276 -248 -276 -4 0 1 17 11 38 10 20 28 60 40 87 46 103 402 805
420 830 5 6 27 47 50 93 39 75 60 101 60 70z m-1646 -3094 c-84 -206 -124
-299 -170 -401 -13 -28 -24 -54 -24 -57 0 -3 -20 -49 -46 -103 -25 -54 -62
-134 -82 -178 -141 -304 -386 -770 -552 -1048 -109 -182 -350 -546 -469 -707
-169 -227 -328 -355 -532 -426 -97 -34 -255 -44 -312 -20 -137 59 -221 235
-219 461 1 60 20 212 36 280 14 65 21 88 43 165 122 412 415 880 783 1251 343
346 705 595 1193 821 140 64 428 180 434 174 2 -1 -36 -97 -83 -212z"/>
</g>
</svg>
