<svg width="279" height="76" viewBox="0 0 279 76" xmlns="http://www.w3.org/2000/svg" xmlns:xlink="http://www.w3.org/1999/xlink"><view viewBox="0 0 93 76"/><svg viewBox="0 0 93 76" width="93" height="76"><path d="M84.368 5.396c-25.453.02-50.912-.017-76.365.036-3.003.276-5.368 3.296-4.99 6.275-.007 19.119-.048 38.24.024 57.357-.05 1.1 1.146 1.674 2.107 1.568 2.952-.09 5.91 0 8.865-.031 24.946 0 49.893-.01 74.839-.021 1.192-.17 1.555-1.55 1.354-2.583-.008-19.23.035-38.46-.047-57.688-.297-2.774-3.01-5.066-5.787-4.913zM8.596 8.6c25.457-.003 50.915 0 76.371.023 1.491.156 2.32 1.848 2.031 3.214v7.56h-80.8c.093-3.098-.182-6.222.166-9.3.345-.891 1.277-1.516 2.232-1.497zm2.852 3.807c-1.546.03-1.992 2.55-.503 3.064 1.205.57 2.794-.833 2.128-2.086-.274-.613-.94-1.072-1.625-.978zM6.3 22.6h80.697v44.797H6.202V22.6h.1zm46.104 5.764c-1.32.241-1.52 1.764-1.98 2.8-3.849 9.646-7.76 19.267-11.516 28.95-.236 1.498 2.247 2.401 2.898.956 1.188-2.6 2.127-5.301 3.237-7.934 3.052-7.674 6.18-15.326 9.144-23.03.128-.96-.823-1.902-1.783-1.742zm-19.846 4.992c-1.617.446-2.824 1.71-4.301 2.446-4.31 2.722-8.701 5.336-12.922 8.183-.757.898-.141 2.36.921 2.683 5.306 3.29 10.555 6.669 15.917 9.86 1.39.492 2.762-1.559 1.6-2.582-.977-.956-2.32-1.423-3.384-2.238-3.59-2.236-7.177-4.475-10.767-6.71C24.379 42.011 29.179 39.09 33.87 36c.944-.952.03-2.84-1.312-2.644zm27.738.023c-1.413.15-1.848 2.414-.48 2.977 4.56 2.92 9.174 5.76 13.76 8.642-4.745 2.995-9.577 5.856-14.227 8.987-.946 1.041.243 3.05 1.629 2.52 1.226-.388 2.195-1.395 3.375-1.967 4.504-2.852 9.1-5.584 13.513-8.562.726-.863.19-2.285-.838-2.624-5.326-3.315-10.606-6.687-15.988-9.91-.238-.081-.495-.085-.744-.063z" style="text-indent:0;text-transform:none;block-progression:tb" color="#000" overflow="visible" fill="#777"/></svg><view viewBox="93 0 93 76"/><svg viewBox="0 0 93 76" width="93" height="76" x="93"><path d="M45.818 1.5c-7.019.092-13.431 6.12-13.823 13.168-.355 4.283 1.35 8.633 4.403 11.637.188.998-.902 1.532-1.276 2.328-2.828 3.72-5.458 7.626-8.45 11.2-1.983.429-4.096.347-5.963 1.168-.888.798-.13 2.64 1.117 2.361.88-.04 1.738-.305 2.624-.288-3.12 4.219-6.241 8.435-9.359 12.655-4.634-2.492-11.07-.46-13.371 4.294-2.181 4.12-1.048 9.75 2.783 12.514 3.48 2.691 8.792 2.797 12.214-.072 3.1-2.42 4.643-6.775 3.44-10.555-.49-1.746-1.484-3.345-2.77-4.591 3.119-4.212 6.232-8.428 9.349-12.641.378 1.19-.018 2.776 1.136 3.601 1.087.665 2.532-.758 1.961-1.87-.176-1.705-.685-3.401-.584-5.122 3.228-4.371 6.459-8.74 9.686-13.113a15.792 15.792 0 0 0 5.967 1.969c-.088 3.844.169 7.722-.172 11.543-1.39 1.56-3.188 2.794-4.229 4.622-.218 1.218 1.586 2.201 2.396 1.156.694-.594 1.246-1.34 2-1.866v9.142c-5.339.618-9.537 6.28-8.44 11.577.766 4.584 5.061 8.387 9.764 8.283 4.35.061 8.591-3.006 9.665-7.249 1.2-4.085-.505-8.842-4.17-11.077a10.156 10.156 0 0 0-4.014-1.543v-9.162c1.11.695 1.7 2.278 3.159 2.322 1.298-.05 1.664-2.1.537-2.674-1.226-1.316-2.682-2.45-3.696-3.938V30.143a16.1 16.1 0 0 0 5.696-1.805c3.225 4.412 6.561 8.775 9.713 13.22-.187 2.05-.888 4.077-.66 6.138.522 1.122 2.575.862 2.61-.46.199-.828.192-1.702.428-2.535 3.169 4.283 6.34 8.563 9.51 12.844-3.933 3.7-3.895 10.724.167 14.33 3.348 3.192 8.987 3.694 12.695.836 3.487-2.497 5.164-7.41 3.539-11.472-1.383-3.808-5.236-6.713-9.36-6.574-1.67-.007-3.33.42-4.81 1.189-3.171-4.284-6.34-8.568-9.514-12.85 1.256-.005 2.687.859 3.805-.045.939-.837-.01-2.615-1.219-2.406-1.68-.322-3.472-.355-5.092-.953-3.178-4.295-6.354-8.591-9.533-12.885 5.097-4.27 6.534-12.315 3.084-18.01-2.591-4.49-7.726-7.477-12.943-7.205zm.712 3.774c5.515.032 10.507 5.037 10.34 10.587.019 5.025-3.966 9.833-9.017 10.42-4.414.66-9.183-1.704-11.04-5.819-1.879-3.83-1.243-8.853 1.85-11.875 2.024-2.12 4.93-3.374 7.867-3.313zM10.716 58.428c3.746-.001 6.885 4.007 5.881 7.644-.795 3.397-4.82 5.703-8.115 4.366-3.155-1.104-5.07-5.083-3.598-8.167.95-2.29 3.338-3.905 5.832-3.843zm71.398.004c3.777-.04 6.966 4.017 5.924 7.676-.815 3.387-4.844 5.676-8.133 4.328-3.155-1.138-5.06-5.145-3.547-8.234.964-2.232 3.313-3.81 5.756-3.77zm-35.816.02c3.878-.154 7.175 4.115 5.966 7.824-.89 3.329-4.921 5.514-8.153 4.127-3.099-1.146-4.97-5.08-3.506-8.132.93-2.229 3.247-3.88 5.693-3.82z" fill="#777"/></svg><view viewBox="186 0 93 76"/><svg viewBox="0 0 93 76.000002" width="93" height="76" x="186"><path d="M31.31.167c-2.927 0-5.328 2.4-5.328 5.327s2.401 5.328 5.328 5.328 5.327-2.401 5.327-5.328c0-2.926-2.4-5.327-5.327-5.327zm0 2.664c1.487 0 2.663 1.176 2.663 2.663s-1.176 2.664-2.663 2.664c-1.487 0-2.664-1.177-2.664-2.664s1.177-2.663 2.664-2.663zm-13.32 9.323c-2.19 0-3.995 1.804-3.995 3.995s1.804 3.996 3.995 3.996 3.996-1.805 3.996-3.996c0-2.19-1.805-3.995-3.996-3.995zm37.255.01a1.332 1.332 0 0 0-1.332 1.332v1.836c-.59.192-1.158.424-1.712.703l-1.294-1.296a1.332 1.332 0 0 0-1.884 0l-3.428 3.428a1.332 1.332 0 0 0 .005 1.884l1.296 1.295c-.28.554-.52 1.121-.712 1.713h-1.83a1.332 1.332 0 0 0-1.333 1.332v4.843a1.332 1.332 0 0 0 1.332 1.332h1.837c.191.59.423 1.162.702 1.717l-1.29 1.29a1.332 1.332 0 0 0-.006 1.883l3.429 3.429a1.332 1.332 0 0 0 1.883 0l1.296-1.3c.554.28 1.121.519 1.711.712v1.831a1.332 1.332 0 0 0 1.332 1.332h4.844a1.332 1.332 0 0 0 1.332-1.332v-1.836c.59-.192 1.162-.424 1.716-.703l1.29 1.296a1.332 1.332 0 0 0 1.89 0l3.423-3.429a1.332 1.332 0 0 0 0-1.883l-1.3-1.294c.28-.554.52-1.122.712-1.712h1.837a1.332 1.332 0 0 0 1.332-1.332v-4.844a1.332 1.332 0 0 0-1.332-1.331H69.15a12.146 12.146 0 0 0-.703-1.718l1.295-1.29a1.332 1.332 0 0 0 0-1.884l-3.42-3.428a1.332 1.332 0 0 0-1.888 0l-1.296 1.3a12.177 12.177 0 0 0-1.711-.712v-1.831a1.332 1.332 0 0 0-1.332-1.332H55.25zM17.99 14.817c.752 0 1.332.58 1.332 1.332 0 .752-.58 1.332-1.332 1.332s-1.332-.58-1.332-1.332c0-.751.58-1.332 1.332-1.332zm38.587.01h2.18v1.374a1.332 1.332 0 0 0 1.035 1.296 9.61 9.61 0 0 1 2.96 1.227 1.332 1.332 0 0 0 1.65-.187l.967-.968 1.545 1.54-.968.963a1.332 1.332 0 0 0-.187 1.644c.57.912.981 1.916 1.217 2.965a1.332 1.332 0 0 0 1.301 1.04h1.379v2.18h-1.374a1.332 1.332 0 0 0-1.3 1.036 9.556 9.556 0 0 1-1.223 2.96 1.332 1.332 0 0 0 .182 1.65l.973.967-1.545 1.545-.963-.968a1.332 1.332 0 0 0-1.644-.187 9.577 9.577 0 0 1-2.965 1.218 1.332 1.332 0 0 0-1.04 1.3v1.374h-2.18v-1.374a1.332 1.332 0 0 0-1.034-1.294 9.594 9.594 0 0 1-2.96-1.228 1.332 1.332 0 0 0-1.65.187l-.967.973-1.54-1.545.962-.963a1.332 1.332 0 0 0 .188-1.644 9.572 9.572 0 0 1-1.218-2.965 1.332 1.332 0 0 0-1.3-1.04h-1.374v-2.18h1.374a1.332 1.332 0 0 0 1.295-1.036 9.572 9.572 0 0 1 1.228-2.96 1.332 1.332 0 0 0-.19-1.65l-.966-.968 1.54-1.545.961.968a1.332 1.332 0 0 0 1.65.187 9.549 9.549 0 0 1 2.96-1.217 1.332 1.332 0 0 0 1.04-1.3v-1.374zm1.092 6.951c-2.76 0-5.036 2.27-5.036 5.031 0 2.761 2.275 5.036 5.036 5.036S62.7 29.57 62.7 26.809c0-2.761-2.27-5.03-5.03-5.03zM20.65 22.82c-2.19 0-3.996 1.805-3.996 3.995 0 1.723 1.122 3.19 2.664 3.746v8.943c-.156.059-.294.102-.54.187C10.1 42.572 4.784 51.353 6.238 60.387c1.454 9.034 9.255 15.701 18.396 15.701 9.14 0 16.95-6.643 18.417-15.675 1.467-9.032-3.84-17.818-12.512-20.711l-.036-.027h-.037c-.26-.066-.37-.1-.495-.138v-8.974c1.544-.555 2.669-2.022 2.669-3.746 0-2.19-1.805-3.996-3.996-3.996H20.65zm37.02 1.623a2.369 2.369 0 1 1-.003 4.737 2.369 2.369 0 0 1 .003-4.737zm-37.02 1.042h7.996a1.3 1.3 0 0 1 1.332 1.331 1.3 1.3 0 0 1-1.332 1.332H20.65a1.3 1.3 0 0 1-1.332-1.332 1.3 1.3 0 0 1 1.332-1.331zm1.332 5.327h5.327V39.9c0 .9.721 1.69 1.264 1.961.52.259.943.326 1.16.38 7.208 2.425 11.633 9.56 10.739 17.064-4.036 1.725-10.65.724-15.504-.489-2.667-.666-5.863-1.392-9.078-1.571v.005c-2.451-.136-4.91.047-7.16.807-.29-7.06 4.046-13.572 10.884-15.844h.021c.25-.088.696-.197 1.202-.463.253-.133.545-.31.812-.677.266-.366.418-.983.301-1.477l.032.306V30.81zm15.498 7.986a1.33 1.33 0 0 0-1.274.947c.921.599 1.796 1.26 2.606 1.982v-.266h3.632v2.185a1.332 1.332 0 0 0 1.035 1.301 12.84 12.84 0 0 1 3.975 1.644c.526.33 1.21.25 1.649-.187l1.54-1.54 2.57 2.565-1.535 1.534a1.332 1.332 0 0 0-.192 1.65 12.851 12.851 0 0 1 1.633 3.98 1.332 1.332 0 0 0 1.3 1.035h2.191v3.636h-2.185a1.332 1.332 0 0 0-1.3 1.036 12.81 12.81 0 0 1-1.64 3.969c-.33.525-.255 1.21.183 1.65l1.545 1.544-2.57 2.565-1.535-1.534a1.33 1.33 0 0 0-1.65-.183 12.824 12.824 0 0 1-3.974 1.634 1.332 1.332 0 0 0-1.04 1.295v2.19h-3.632v-.109a21.49 21.49 0 0 1-2.56 1.951c.208.495.692.817 1.228.817h6.295c.736 0 1.332-.596 1.332-1.332V72.11a15.431 15.431 0 0 0 2.732-1.118l1.862 1.862c.52.52 1.363.52 1.883 0l4.454-4.448c.52-.52.52-1.363 0-1.883l-1.873-1.873a15.43 15.43 0 0 0 1.129-2.721h2.648c.736 0 1.332-.596 1.332-1.332v-6.3c0-.736-.596-1.332-1.332-1.332h-2.648a15.417 15.417 0 0 0-1.119-2.726l1.863-1.868c.52-.52.52-1.363 0-1.883l-4.451-4.451a1.332 1.332 0 0 0-1.883 0l-1.868 1.868a15.43 15.43 0 0 0-2.726-1.13v-2.647c0-.736-.596-1.332-1.332-1.332h-6.295zm35.435 2.663a1.332 1.332 0 0 0-.358.047l-3.741 1.004a1.332 1.332 0 0 0-.942 1.629l.333 1.248c-.31.213-.604.442-.89.687l-1.116-.647a1.332 1.332 0 0 0-1.82.484l-1.94 3.356a1.332 1.332 0 0 0 .49 1.82l1.123.646c-.071.37-.121.742-.15 1.118l-1.25.333a1.332 1.332 0 0 0-.941 1.629l1.004 3.745a1.332 1.332 0 0 0 1.634.942l1.243-.333c.212.31.441.605.687.89l-.645 1.118a1.332 1.332 0 0 0 .484 1.821l3.355 1.936a1.332 1.332 0 0 0 1.821-.484l.645-1.124c.37.072.743.122 1.119.15l.333 1.244a1.332 1.332 0 0 0 1.633.942l3.741-.999a1.332 1.332 0 0 0 .942-1.634l-.338-1.248c.31-.213.61-.436.894-.682l1.119.645a1.332 1.332 0 0 0 1.82-.489L85.14 57.9a1.332 1.332 0 0 0-.484-1.816l-1.13-.653c.072-.37.123-.738.152-1.113l1.248-.333a1.332 1.332 0 0 0 .942-1.634l-1.007-3.74a1.332 1.332 0 0 0-1.633-.941l-1.249.333a9.623 9.623 0 0 0-.685-.89l.65-1.124a1.332 1.332 0 0 0-.488-1.815l-3.356-1.94a1.332 1.332 0 0 0-1.816.488l-.65 1.124a9.796 9.796 0 0 0-1.113-.15l-.333-1.25a1.332 1.332 0 0 0-1.275-.988zm-.952 2.96v.006l.214.796a1.332 1.332 0 0 0 1.332.988 7.34 7.34 0 0 1 2.45.328 1.332 1.332 0 0 0 1.55-.603l.417-.724 1.05.604-.416.723a1.332 1.332 0 0 0 .245 1.639 7.388 7.388 0 0 1 1.509 1.961 1.332 1.332 0 0 0 1.519.666l.8-.213.318 1.165-.796.214a1.332 1.332 0 0 0-.988 1.331c.028.83-.08 1.663-.328 2.456a1.332 1.332 0 0 0 .603 1.55l.724.417-.61 1.05-.717-.416a1.332 1.332 0 0 0-1.644.245 7.392 7.392 0 0 1-1.961 1.509 1.332 1.332 0 0 0-.661 1.519l.213.8-1.17.318-.214-.796a1.332 1.332 0 0 0-1.332-.988 7.345 7.345 0 0 1-2.45-.333 1.332 1.332 0 0 0-1.55.609l-.417.723-1.05-.604.416-.723a1.332 1.332 0 0 0-.245-1.644 7.352 7.352 0 0 1-1.51-1.958 1.332 1.332 0 0 0-1.524-.66l-.796.208-.318-1.166.796-.213a1.332 1.332 0 0 0 .989-1.332c-.029-.83.08-1.658.327-2.45a1.332 1.332 0 0 0-.603-1.55l-.723-.417.603-1.05.723.415a1.332 1.332 0 0 0 1.644-.254 7.379 7.379 0 0 1 1.962-1.504 1.332 1.332 0 0 0 .66-1.524l-.213-.802 1.17-.312zm1.53 4.886a4.38 4.38 0 0 0-.812.14 4.278 4.278 0 0 0-2.606 1.993c-1.177 2.038-.473 4.686 1.566 5.863 2.04 1.178 4.686.468 5.863-1.571 1.177-2.04.468-4.686-1.571-5.863a4.257 4.257 0 0 0-2.44-.562zm.494 2.663c.21.027.42.096.614.209A1.625 1.625 0 0 1 75.2 54.4a1.632 1.632 0 0 1-2.226.598 1.63 1.63 0 0 1 1.014-3.028zm-28.688.422c.682 2.692.85 5.551.38 8.449-.09.552-.208 1.092-.338 1.628a7.083 7.083 0 0 0 2.112-5.036c0-1.974-.833-3.756-2.154-5.041zm-31.685 7.57c3.522-.117 7.462.63 10.707 1.441 4.462 1.114 10.51 2.375 15.488.984-2.117 6.496-8.164 11.04-15.175 11.035-7.549 0-13.956-5.295-15.55-12.604 1.35-.514 2.882-.8 4.532-.855z" style="text-decoration-color:#000;isolation:auto;mix-blend-mode:normal;block-progression:tb;text-decoration-line:none;text-decoration-style:solid;text-indent:0;text-transform:none" color="#000" white-space="normal" fill="#777"/></svg></svg>