<svg xmlns="http://www.w3.org/2000/svg" width="192.076" height="104.854" viewBox="0 0 180.07081 98.300799"><title>Fluent Development</title><text x="42.133" y="74.869" font-weight="700" font-size="12.5" font-family="arial" letter-spacing="3" fill="#bbb">DEVELOPMENT</text><path d="M132.217 31.083c1.51-1.002 3.028-1.99 4.535-2.997 1.616-1.08 3.36-1.908 5.262-2.251 1.869-.337 3.74.315 5.6.519 3.71.406 7.262-1.125 10.594-2.589 4.145-1.82 7.957-4.233 11.632-6.858l-2.826 3.755c-3.723 2.616-7.579 5.03-11.759 6.854-3.448 1.504-7.104 3.013-10.94 2.587-1.825-.203-3.674-.756-5.502-.348-1.845.41-3.518 1.248-5.089 2.31-1.533 1.035-3.085 2.042-4.583 3.127zm-95.146 8.57c2.175-1.572 4.297-3.224 6.421-4.868 5.054-3.912 10.05-7.898 15.049-11.88l-2.958 3.977c-5.067 4.048-10.127 8.106-15.229 12.11-2.196 1.724-4.362 3.516-6.693 5.05zm50.547 1.836c-2.3 2.604-5.074 5.428-8.009 7.7-.963.747-1.917 1.787-3.203 1.8-.704.008-1.427-.116-1.948-.632-.822-.815-.97-1.97-.852-3.097.178-1.713.508-3.407 1.261-4.97.85-1.76 1.682-3.531 2.607-5.252.407-.756 1.049-2.113 1.927-3.375.484-.695 2.586-3.687 3.154-3.184.299.265.2.759.186 1.522-.014.748-.082 1.503-.33 2.214-.329.951-1.163 2.4-1.382 2.684-1.894 2.447-4.94 5.34-7.624 7.788a59.333 59.333 0 0 1-6.742 5.322c-1.884 1.275-3.93 2.894-6.3 2.736-1.166-.078-2.06-.504-2.35-1.715-.342-1.434-.074-2.958-.002-4.422.118-2.404.392-4.847 1.29-7.1 1.081-2.71 2.287-5.387 3.877-7.844 1.932-2.983 3.9-5.933 6.032-8.778 1.957-2.611 3.913-5.223 5.953-7.77 1.344-1.679 2.654-3.384 4.013-5.051C81.463 7.261 84.06 4.72 86.75 2.3c1.036-.932 2.138-1.915 3.535-2.213.74-.158 1.417-.196 1.715.729.298.925.04 1.978-.073 2.92a15.813 15.813 0 0 1-1.535 5.128c-1.222 2.475-2.93 4.622-4.84 6.612-4.107 4.28-8.192 8.594-12.535 12.637-3.779 3.518-7.68 6.905-11.818 9.997-3.693 2.76-7.445 5.532-11.595 7.558-3.678 1.795-7.619 2.91-11.451 4.332-4.862 1.804-9.574 3.997-13.884 6.912-2.22 1.501-2.894 2.006-4.994 3.712-2.348 1.905-4.284 3.895-6.249 6.367-3.58 4.503-6.668 9.339-8.151 14.963-.964 3.655-1.671 7.675.79 10.902.244.32.584.566.93.772 2.256 1.343 5.171.073 7.24-.945 2.613-1.287 4.664-3.915 6.11-5.995 3.85-5.538 7.537-11.713 10.459-17.31 2.255-4.322 6.343-13.37 9.14-20.711 1.99-5.225 4.036-10.591 6.332-15.772 1.766-3.986 3.699-7.894 5.703-11.765 1.657-3.203 3.25-6.44 4.968-9.61 2.19-4.042 3.421-6.652 7.182-9.532.438-.335 1.215-.16 1.43.489.31.944-.21 3.054-.4 4.26-.38 2.42-.974 4.819-1.968 7.07-1.178 2.666-2.504 5.265-4.443 7.471-3.4 3.869-7.02 7.596-11.302 10.482-2.64 1.779-5.35 3.457-8.181 4.914-1.759.906-3.611 1.706-5.162 2.953l3.326-4.445h.001c1.578-1.132 3.423-1.875 5.146-2.766 2.8-1.448 5.473-3.121 8.079-4.892.477-.325.94-.672 1.4-1.021.745-.567 1.599-1.181 2.4-2.063 1.95-2.148 3.312-4.68 4.495-7.305 1-2.217 1.76-5.146 2.045-6.965.101-.643.197-1.452.306-2.162-.698 1.231-3.474 6.679-5.148 9.888-2.024 3.879-3.973 7.796-5.773 11.784-2.348 5.202-4.41 10.527-6.462 15.851-2.736 7.101-5.802 14.064-9.246 20.843-3.028 5.962-6.525 11.675-10.246 17.228-2.747 4.099-6.154 7.63-9.781 10.97-.988.91-2.413 1.705-3.61 2.277-2.266 1.083-5.308 2.23-7.701.742-.389-.242-.766-.528-1.047-.89-2.62-3.38-2.048-7.594-1.04-11.464 1.17-4.49 3.386-8.682 6.062-12.472a43.47 43.47 0 0 1 2.102-2.773c4.022-4.824 8.384-9.435 13.252-13.422 2.104-1.723 2.822-2.217 5.063-3.714 4.066-2.714 10.75-5.808 14.065-6.941 2.479-.847 8.554-2.939 11.466-4.412 3.522-1.78 7.769-4.822 11.442-7.527 1.207-.89 7.19-5.726 11.499-9.78 1.263-1.19 3.878-3.958 5.47-5.596 1.682-1.747 3.63-4.12 4.833-6.417.812-1.552 1.46-3.887 1.599-4.953.081-.626.278-2.122.158-2.701-.12-.581-.869-.24-1.091-.16-.806.287-2.223 1.223-3.207 2.46a774.236 774.236 0 0 1-4.053 5.058c-2.073 2.56-4.066 5.183-6.047 7.815-2.134 2.836-4.108 5.776-6.047 8.746-1.58 2.421-2.77 5.058-3.873 7.72-.915 2.206-1.237 4.576-1.366 6.938-.077 1.421-.242 2.871-.012 4.28.166 1.022 1.152 1.193 1.84 1.215 1.56.05 4.142-1.6 5.883-2.859 3.845-2.78 4.54-3.418 6.735-5.564 2.043-1.997 4.203-5.4 4.203-5.4-.946 1.72-.819 2.154-1.657 4.169-.647 1.555-1.155 3.13-1.344 4.794-.105.924-.184 1.864.57 2.698.321.354 1.263.374 1.642.337.907-.088 4.348-3.188 5.676-4.672.559-.625.71-.721 1.048-1.097.86-.957 1.57-2.036 2.358-3.052.385-.496 1.086-1.642 1.478-2.132.585-.728 1.547-1.836 2.538-2.73 1.014-.915 1.884-.972 1.464.117-.462 1.2-1.086 2.221-1.578 3.358a25.641 25.641 0 0 0-1.662 4.795c-.262 1.122-.596 4.582-.36 5.45.218.809 1.442.504 2.113.301 2.065-.625 4.104-2.382 5.843-3.62 1.749-1.245 4.127-3.33 4.64-3.906.757-.851 2.31-2.819 2.118-3.896-.15-.849-2.392-.768-3.567-.09-.935.54-1.183.902-2.09 2.474-.798 1.381-1.289 2.87-1.568 4.43a7.016 7.016 0 0 0 .314 3.69c.38 1.058 1.19 1.493 2.233 1.703 1.795.36 3.392-.265 4.962-1.093 2.048-1.08 4.435-4.723 6.295-6.949.474-.568 1.26-1.555 1.37-1.748 1.084-1.89 3.333-4.126 4.593-4.67.373-.16 1.018.498.982 1.297-.058 1.296-.726 2.653-1.198 3.851.82-1.102.943-1.27 1.651-1.978 1.876-1.876 4.246-3.544 6.868-5.208.675-.428 1.028-.27 1.11.548.123 1.224-.35 2.431-.768 3.567a74.086 74.086 0 0 0-1.973 6.154c-.417 1.672-.997 3.373-.88 5.103.091 1.372.971 1.619 1.863 1.36 1.843-.535 4.358-2.42 6.3-3.962.444-.354.874-.725 1.303-1.097.44-.38 2.057-2.163 2.505-2.724 2.214-2.776 4.123-5.787 5.87-8.874 1.934-3.415 3.846-6.84 5.781-10.255 1.808-3.19 3.589-6.35 5.02-9.768.63-1.501.69-1.855.803-2.136-2.249 3.392-3.998 6.89-5.884 10.488-2.385 4.553-4.55 9.214-6.132 14.102-1.138 3.515-2.009 7.986-1.651 10.78.347 2.717 2.194 4.604 4.536 6.179 2.744 1.843 5.826 2.864 9.045 3.5 4.376.866 9.312.18 11.719-.298 2.196-.437 7.164-1.983 10.828-4.183.44-.264 1.715-1.108 2.084-1.392l2.038-1.573-3.091 4.136c-.691.52-1.365 1.065-2.074 1.56-.693.483-1.401.949-2.132 1.374-3.393 1.972-7.802 3.508-10.988 4.117-2.781.532-7.94 1.034-11.911.227-3.287-.667-6.644-1.87-9.243-3.611-2.089-1.4-4.31-3.462-4.846-6.518a10.729 10.729 0 0 1-.174-1.53c-.097-3.237.863-6.486 1.807-9.53 1.525-4.918 3.716-9.585 6.084-14.161 1.846-3.567 3.648-7.169 5.815-10.557 2.23-3.488 4.185-6.656 7.556-9.341 1.14-.908 1.761-.487 1.772.232.014.965-1.095 3.273-1.756 4.828-1.447 3.402-3.235 6.644-5.052 9.868-1.923 3.411-3.853 6.816-5.754 10.239-1.724 3.105-3.607 6.139-5.804 8.931-3.286 4.176-7.13 7.92-11.26 11.257-1.278 1.033-4.714 3.581-6.654 3.903-1.15.19-2.296-.398-2.5-1.987-.163-1.267.403-3.558.846-5.279.535-2.078 1.124-4.143 1.912-6.143.36-1.073.786-2.142.836-3.276-.697.117-2.69 1.422-3.804 2.739-1.19 1.407-2.294 3.405-2.913 4.226-1.206 1.598-5.457 10.908-7.267 8.671.157-.533 1.198-3.038 1.408-3.551.588-1.307 1.284-2.564 1.803-3.906.444-1.15 1.915-3.86 2.19-5.06-.42.408-.444.547-1.644 1.863-2.852 3.13-7.636 8.944-10.575 10.54-1.01.549-3.245 1.32-5.305.83-1.198-.284-2.162-.9-2.624-2.093-.49-1.263-.693-2.547-.477-3.91.254-1.606.669-3.162 1.462-4.596.808-1.46 1.679-2.891 2.85-4.089 1.751-1.789 4.653-5.15 7.104-5.806 1.409-.378 3.423-.04 4.018.99.295.512-.175 1.38-.529 2.051-1.59 3.019-5.323 6.564-8.007 8.918-1.702 1.493-3.878 3.42-5.738 4.716-1.808 1.26-3.908 2.75-5.789 3.179-.996.227-2.41.168-2.773-.874-.284-.812-.016-4.46.263-5.688.376-1.658.717-2.695 1.342-4.243-.401.453-.425.457-.837.923z"/></svg>