<svg xmlns="http://www.w3.org/2000/svg" viewBox="0 0 48.000001 47.999998" height="48" width="48"><path d="M37.877.214c-2.192 1.506-3.112 4.132-4.397 6.345-1.232 2.319-2.341 4.708-3.582 7.018-1.497 1.247-3.432 1.792-5.01 2.907-.795.713-1.351 1.665-1.94 2.55 1.407-.83 2.841-1.688 4.336-2.327-.08.348-.806.707-1.163 1.027-1.354.869-2.349 2.147-3.203 3.485 1.963-1.156 3.645-2.714 5.452-4.088-.694 1.626-1.29 3.324-1.994 4.92a33.24 33.24 0 0 0-12.727 8.614c-3.515 3.59-6.831 7.935-7.29 13.086-.117 1.592.395 3.636 2.097 4.164 1.822.392 3.604-.636 5-1.707 4.075-3.408 6.777-8.094 9.315-12.683 1.801-3.292 3.307-6.727 4.74-10.192 3.546-1.064 6.717-3.107 9.605-5.373.705-.757 1.313-1.604 1.903-2.452-3.002 1.92-5.8 4.293-9.272 5.33-.379.027-1.51.792-1.38.316.82-2.002 1.502-4.067 2.49-5.992 1.652-1.347 3.523-2.543 4.595-4.45.568-.775-.37.031-.632.203-.837.577-.076-.36.242-.643 2.353-2.659 3.656-6.153 3.82-9.668-.006-.56-.604-.82-1.005-.39zM36.334 4.41c-.576 2.842-1.787 5.741-4.074 7.618 1.155-2.622 2.585-5.128 3.874-7.692.216-.23.203-.359.2.074zM25.582 24.203c-2.695 6.768-5.895 13.416-10.357 19.205-1.217 1.388-3.033 2.56-4.95 2.315-1.485-.46-1.817-2.28-1.72-3.64.282-3.114 1.774-6 3.573-8.508 3.295-4.601 8.263-7.731 13.542-9.6l-.088.228z"/></svg>