<svg xmlns="http://www.w3.org/2000/svg" viewBox="0 0 641.1422 349.99999" height="373.333" width="683.885"><title>Fluent Development</title><path d="M323.383.115c-4.54.362-8.495 2.964-11.852 5.864-9.98 8.785-19.585 18.024-28.135 28.214-6.284 7.626-12.29 15.475-18.473 23.18-7.217 9.195-14.238 18.543-21.2 27.93-6.949 9.57-13.532 19.428-19.893 29.397-3.213 5.186-5.96 10.666-8.478 16.206-8.931 6.237-17.997 12.356-27.739 17.266-8.16 3.915-16.675 7.028-25.17 10.134-2.366.853-4.739 1.69-7.111 2.528 5.95-15.42 11.914-30.848 18.488-46.01 8.008-6.389 16.01-12.784 24.012-19.18l10.064-13.53c-10.075 8.016-20.14 16.047-30.25 24.02.24-.594.44-1.23 1.042-1.552 10.853-8.95 20.532-19.207 29.76-29.8 6.866-8.113 11.62-17.739 15.782-27.449 3.293-7.94 5.18-16.376 6.5-24.84.67-4 1.682-8.005 1.456-12.092-.036-1.501-.78-3.14-2.31-3.613-1.235-.493-2.634-.048-3.548.867-6.003 4.618-11.259 10.215-15.36 16.586-4.209 6.512-7.676 13.457-11.389 20.259-6.364 11.996-12.386 24.17-18.646 36.22a899.46 899.46 0 0 0-11.726 23.79c-8.37 5.329-17.022 10.231-26.012 14.443-3.902 1.925-7.85 3.867-11.345 6.469l-11.33 15.137c6.416-4.95 14.047-7.918 21.105-11.802 7.811-4.189 15.369-8.827 22.756-13.718-.403.791-.665 1.695-1.147 2.423-10.333 8.007-20.59 16.118-31.173 23.796-3.92 5.043-7.838 10.087-11.756 15.13 9.416-6.284 18.071-13.6 27.007-20.539 4.073-3.2 8.133-6.417 12.194-9.632-5.393 12.733-10.407 25.62-15.352 38.535-9.977 3.818-19.66 8.356-29.142 13.27-7.21 3.74-14.241 7.817-20.921 12.44-5.612 3.692-10.921 7.817-16.076 12.118-17.178 14.266-32.52 30.602-46.749 47.774a180.954 180.954 0 0 0-15.122 22.096C9.813 283.41 4.852 295.23 2.106 307.61.42 315.043-.632 322.835.72 330.405c.943 5.296 3.159 10.414 6.668 14.522 3.137 3.215 7.61 4.96 12.072 4.965 6.567.05 12.782-2.508 18.627-5.283 5.06-2.456 10.02-5.319 14.028-9.32 12.792-11.874 24.89-24.682 34.453-39.347 13.873-20.784 26.797-42.227 37.87-64.645 9.55-19.157 18.269-38.719 26.231-58.589 10.781-3.69 21.548-7.592 31.548-13.116 10.217-5.57 19.771-12.26 29.122-19.154-3.373 8.348-4.308 17.395-4.74 26.315-.29 5.209-1.205 10.57.273 15.685.648 2.243 2.53 4.065 4.802 4.686 4.428 1.314 9.218.382 13.326-1.523 5.186-2.406 9.722-5.945 14.454-9.106 8.87-6.143 17.202-13.053 25.07-20.43-1.377 4.488-2.131 9.142-2.463 13.817-.156 3.492.714 7.21 3.41 9.613 2.125 1.838 5.134 2.148 7.815 1.848 3.696-.625 6.475-3.367 9.28-5.627 11.123-8.576 21.013-18.613 30.276-29.123.772-.792 1.461-1.667 2.264-2.424-.83 2.366-1.833 4.682-2.583 7.082-1.4 4.398-2.613 8.887-3.027 13.503-.434 4.484-.8 9.008-.456 13.51.055 1.744 1.077 3.408 2.686 4.128 3.019 1.345 6.5.81 9.536-.203 5.392-1.867 10.215-5.073 14.909-8.272.773 2.984 1.802 6.124 4.246 8.174 3.154 2.675 7.423 3.577 11.463 3.547a30.976 30.976 0 0 0 13.763-3.596c4.717-2.731 8.694-6.525 12.589-10.28 9.408-9.31 17.9-19.504 26.805-29.297 1.417-1.55 2.653-3.263 4.167-4.724-.95 3.787-2.796 7.264-4.41 10.798-1.526 3.176-3.046 6.359-4.32 9.64-2.232 5.201-5.044 10.14-7.053 15.44-1.2 2.987-2.47 5.947-3.516 8.993.81 1.128 2.4 1.459 3.624.834 2.552-1.193 4.336-3.501 6.07-5.64 5.841-7.718 10.08-16.46 15.052-24.725 1.376-2.02 2.788-4.019 4.069-6.105 3.164-4.875 6.229-9.96 10.69-13.78 2.772-2.347 5.739-4.574 9.1-6.014.336-.08.974-.446 1.17-.245-.209 4.304-1.84 8.353-3.234 12.379-3.398 8.824-5.819 17.982-8.013 27.166-.876 3.983-1.785 8.02-1.615 12.125.152 2.759 1.408 5.708 4.01 7 2.478 1.307 5.43.78 7.918-.214 5.234-2.067 9.942-5.234 14.535-8.439 6.116-4.361 11.823-9.287 17.444-14.275a259.757 259.757 0 0 0 14.016-13.54c-1.313 6.225-2.183 12.63-1.66 19.004.394 4.375 1.534 8.69 3.75 12.512 3.864 6.791 10.107 11.854 16.701 15.842 8.872 5.254 18.762 8.637 28.804 10.824 9.143 2 18.596 2.052 27.899 1.44 8.404-.583 16.788-1.797 24.88-4.158 10.186-2.952 20.136-6.882 29.375-12.104 5.152-2.938 9.968-6.402 14.626-10.062 1.296-.805 1.972-2.224 2.925-3.368l8.583-11.484c-3.62 2.752-7.12 5.668-10.967 8.101-7.59 5.088-16.03 8.752-24.58 11.89-7.202 2.572-14.562 4.814-22.144 5.914-10.806 1.657-21.859 2.305-32.726.851-6.406-.948-12.72-2.517-18.849-4.6-8.82-3.054-17.231-7.552-24.2-13.799-4.36-3.935-7.91-9.023-9.09-14.855-1.017-5.173-.633-10.502-.041-15.703.625-5.03 1.597-10.02 2.822-14.936 5.63-7.368 10.683-15.17 15.363-23.174 9.776.539 19.33-2.335 28.31-5.933 8.951-3.58 17.714-7.656 26.075-12.465 8.263-4.695 16.207-9.92 23.984-15.38l9.668-12.843c-13.543 9.654-27.76 18.515-43.11 25.011-8.866 3.861-18.023 7.596-27.761 8.365a41.67 41.67 0 0 1-9.518-.321c7.295-13.096 14.767-26.093 22.014-39.214 4.954-8.992 9.582-18.17 13.555-27.64 1.812-4.268 3.874-8.47 5.044-12.974.336-1.375.61-3.195-.62-4.23-1.362-.921-3.02-.089-4.242.69-3.324 2.43-6.348 5.297-9.208 8.273-7.931 8.372-13.929 18.288-20.101 27.956-7.814 12.606-14.39 25.924-21.204 39.081a570.833 570.833 0 0 0-3.202 6.392c-7.289 1.25-14.048 4.636-20.102 8.816-4.976 3.313-9.976 6.59-14.963 9.885l-10.555 14.1c5.744-4.104 11.646-7.983 17.522-11.892 5.536-3.514 11.64-6.348 18.149-7.415a24.64 24.64 0 0 1 3.71-.207c-4.476 10.002-8.353 20.27-11.454 30.783-.473 1.448-.817 2.958-1.33 4.38-3.252 4.37-6.948 8.395-10.745 12.291-4.391 3.985-9.117 7.59-13.922 11.06-4.19 2.907-8.504 5.808-13.363 7.467-1.878.666-4.307.832-5.799-.73-1.631-1.743-1.555-4.322-1.526-6.552.205-5.607 2.012-10.974 3.364-16.366 2.234-8.237 5.003-16.313 7.953-24.317 1.166-3.402 2.162-7.044 1.436-10.653-.14-.874-.854-1.839-1.847-1.58-1.621.388-2.877 1.597-4.302 2.4-8.617 5.6-17.105 11.598-24.101 19.2-1.382 1.537-2.505 3.295-3.832 4.866-.095-.321.395-1.118.545-1.616 1.652-4.122 3.636-8.29 3.693-12.813-.13-1.653-1.023-3.517-2.7-4.045-.84-.138-1.538.56-2.25.897-4.007 2.591-7.378 6.055-10.436 9.69-1.719 2.035-3.209 4.247-4.593 6.516-3.04 4.072-6.42 7.878-9.462 11.949-4.267 5.447-8.368 11.11-13.552 15.736-2.66 2.444-5.995 3.957-9.296 5.322-4.193 1.676-8.898 2.386-13.321 1.228-2.7-.606-5.35-2.135-6.602-4.697-.522-1.012-.848-2.109-1.161-3.2 9.563-8.197 19.136-16.45 27.534-25.865 4.583-5.21 8.981-10.792 11.673-17.236.515-1.34.882-3.048-.194-4.22-1.822-2.19-4.746-2.996-7.45-3.327-3.413-.4-6.919.188-9.944 1.844-5.207 2.762-9.544 6.877-13.717 10.992a526.712 526.712 0 0 0-9.384 9.775c-3.837 4.384-6.818 9.437-9.52 14.575-2.508 5.136-3.892 10.786-4.578 16.446.06.556-.08.97-.667 1.077-2.46 1.06-5.06 1.997-7.765 2.053-1.307.058-2.845-.556-3.152-1.959-.502-2.604-.237-5.285-.13-7.916.37-5.019.826-10.081 2.284-14.918 1.99-7.164 4.985-13.997 8.394-20.59.943-2.009 2.015-3.997 2.593-6.137.222-.688-.035-1.74-.924-1.68-1.78.143-3.218 1.406-4.523 2.512a83.602 83.602 0 0 0-9.632 10.555c-2.024 2.9-3.887 5.911-6.094 8.68-2.907 3.933-5.732 7.97-9.3 11.344-4.606 5.12-9.673 9.824-15.052 14.127-1.928 1.43-3.815 3.044-6.098 3.873-1.625.279-3.341.145-4.925-.309-1.56-.422-2.412-1.97-3.04-3.336-1.213-2.995-.56-6.298-.157-9.39.794-4.85 2.308-9.56 4.178-14.094 2.58-2.813 5.16-5.65 7.4-8.745 1.813-3.01 3.545-6.114 4.65-9.46 1.068-3.426.98-7.089 1.073-10.653-.033-.79-.216-1.901-1.102-2.14-1.28.086-2.209 1.165-3.113 1.967-3.264 3.345-5.982 7.176-8.594 11.038-2.94 4.575-5.28 9.511-7.84 14.308-2.056 3.99-3.979 8.05-5.943 12.083-6.406 6.077-13.662 11.165-20.804 16.326-4.572 3.147-9.293 6.215-14.542 8.108-2.757 1.01-5.924 1.3-8.67.105-1.656-.681-2.717-2.363-2.827-4.121-.783-5.595-.015-11.239.248-16.842.52-7.464 1.664-14.99 4.474-21.957 14.42-11.388 28.127-23.654 41.372-36.383 13.252-12.808 25.943-26.196 38.69-39.504 7.395-7.917 14.027-16.804 17.969-26.978 1.844-4.736 2.936-9.717 3.498-14.758.438-3.2 1.114-6.659-.28-9.723-.607-1.476-2.2-2.158-3.74-1.978zM311.31 14.842c.903-.088 1.643.687 1.65 1.564.273 3.158-.266 6.318-.624 9.449-.795 4.912-2.302 9.696-4.17 14.3-2.438 5.741-6.02 10.91-9.804 15.838-4.055 5.28-8.67 10.079-13.311 14.838-6.398 6.604-12.664 13.352-19.53 19.475-10.694 9.702-21.737 19.015-33.019 28.024-.946.746-1.89 1.494-2.85 2.22 3.343-7.524 7.187-14.843 11.82-21.658 7.343-11.236 14.953-22.303 23.131-32.952a938.09 938.09 0 0 1 22.537-28.812c3.749-4.618 7.391-9.324 11.17-13.916 2.834-3.14 6.233-5.848 10.112-7.57.934-.346 1.875-.78 2.888-.8zm-94.377 13.683c-.69 4.813-1.242 9.65-2.427 14.375-1.759 7.407-4.154 14.69-7.514 21.531-4.117 8.664-9.025 17.1-15.757 24.004-2.652 2.636-5.701 4.826-8.687 7.067 6.634-14.158 13.878-28.017 21.08-41.89 4.361-8.389 8.608-16.84 13.117-25.15.24-.301.186-.36.188.063zm329.654 4.684c-2.244 6.782-5.268 13.276-8.417 19.68-5.936 11.878-12.733 23.295-19.192 34.89-.869 1.544-1.736 3.088-2.606 4.631-.524-.088-1.05-.17-1.576-.244 5.553-12.3 11.964-24.185 18.221-36.135 4.184-7.831 8.51-15.612 13.467-22.978.174-.228.114.013.103.156zm-175.193 91.574c1.638.049 3.563.16 4.724 1.475.775 1.18.329 2.703-.062 3.942-1.368 3.635-3.77 6.764-6.216 9.736-2.316 2.77-5.156 5.034-7.858 7.411-3.798 3.261-7.767 6.32-11.838 9.22-.093-4.294.978-8.511 2.24-12.58 1.506-4.728 3.942-9.094 6.666-13.216 2.203-3.306 6.007-5.304 9.894-5.803.81-.122 1.631-.184 2.45-.185zM139.563 176.74c-6.98 17.888-14.609 35.528-22.719 52.931-4.26 9.17-8.79 18.215-13.684 27.063-10.11 18.412-21.127 36.336-33.173 53.548-4.9 6.822-10.397 13.46-17.538 18.03-3.063 1.905-6.389 3.363-9.724 4.721-4.671 1.818-9.812 3.162-14.83 2.14-2.865-.616-5.62-2.041-7.592-4.232-4.005-5.004-5.991-11.41-6.185-17.776-.27-8.075 1.652-16.018 3.793-23.742 4.393-15.294 12.345-29.323 21.662-42.13 6.803-9.33 14.137-18.338 22.705-26.11 4.815-4.372 9.925-8.418 15.1-12.353 8.095-5.91 16.493-11.436 25.345-16.151 11.838-6.385 24.262-11.615 36.918-16.142l-.078.203z" opacity=".77" fill="#7f7f7f"/></svg>