<svg xmlns="http://www.w3.org/2000/svg" width="191.999" height="104.791" viewBox="0 0 179.99944 98.241393"><title>Fluent Development</title><text y="74.826" x="42.062" font-family="arial" font-size="12.5" font-weight="700" letter-spacing="3" fill="#fff" fill-opacity=".7">DEVELOPMENT</text><path d="M132.145 31.04c1.51-1.002 2.996-2.039 4.535-2.997 1.582-1.13 3.37-1.853 5.262-2.251 1.879-.281 3.752.237 5.6.519 3.719.328 7.243-1.17 10.594-2.589 4.126-1.864 7.957-4.233 11.633-6.858l-2.827 3.756c-3.723 2.616-7.598 4.986-11.758 6.853-3.468 1.46-7.099 2.955-10.94 2.587-1.818-.26-3.668-.728-5.503-.348a14.577 14.577 0 0 0-5.088 2.31 97.414 97.414 0 0 0-4.583 3.128l3.075-4.11zM37 39.61c2.176-1.572 4.295-3.227 6.422-4.868 5.051-3.915 10.05-7.898 15.048-11.88l-2.957 3.977c-5.067 4.048-10.131 8.101-15.23 12.11-2.2 1.72-4.362 3.516-6.693 5.05L37 39.61zm-.041-4.47c1.577-1.133 3.405-1.91 5.146-2.767 2.78-1.483 5.462-3.137 8.078-4.892.467-.34.94-.672 1.4-1.02.746-.567 2.004-1.582 2.7-2.208.423-.379 1.636-1.573 1.232-1.175-3.282 3.229-3.28 3.286-1.532 1.32 1.957-2.142 3.322-4.677 4.495-7.306 1.009-2.213 1.609-4.58 2.046-6.965.122-1.319.496-2.668.4-4.002-.14-.496-.435.063-.584.262 6.274-6.513 3.52-3.671 2.419-1.903-.753 1.207-1.389 2.487-2.065 3.737-1.747 3.17-3.353 6.415-5.012 9.632a222.92 222.92 0 0 0-5.773 11.784c-2.342 5.205-4.307 10.568-6.462 15.852-2.632 7.14-5.851 14.038-9.246 20.842C31.123 72.268 27.665 78 23.953 83.56c-2.756 4.092-6.154 7.63-9.78 10.97-.988.91-2.45 1.634-3.611 2.277-2.299 1.01-5.307 2.23-7.7.742-.39-.242-.698-.594-1.047-.89C-.73 93.222-.12 89.092.775 85.194c1.282-4.46 3.385-8.682 6.062-12.472.669-.947 1.4-1.848 2.101-2.773 4.064-4.79 8.384-9.435 13.252-13.421 2.105-1.724 2.85-2.178 5.064-3.715 4.403-2.881 9.168-5.06 14.064-6.941 3.873-1.358 7.759-2.642 11.467-4.412 4.033-2.145 7.779-4.808 11.441-7.527 4.106-3.134 7.993-6.53 11.78-10.039 4.476-4.344-.188.272-.313.377-.553.464 1.003-1.04 1.501-1.563 1.326-1.392 2.666-2.768 4.002-4.15 1.868-1.949 3.544-4.045 4.833-6.418a18.19 18.19 0 0 0 1.598-4.953c.083-.889.27-1.807.158-2.701-.163-.57-.662-.259-1.09-.16-1.26.498-2.269 1.445-3.261 2.338 1.93-2.001-3.8 3.697-1.864 1.792 6.003-5.908 3.197-3.161 1.918-1.67-1.33 1.703-2.704 3.37-4.053 5.058-2.084 2.553-4.081 5.172-6.048 7.816-2.148 2.824-4.126 5.763-6.046 8.745-1.599 2.41-2.772 5.058-3.874 7.72-.915 2.205-1.196 4.578-1.365 6.938-.037 1.423-.165 2.861-.013 4.28.243 1.007.924 1.11 1.84 1.215 2.21-.163 4.126-1.623 5.884-2.858 2.386-1.616 4.59-3.473 6.72-5.409.277-.26.556-.517.831-.778.257-.244.511-.49.765-.735 3.009-2.917-4.305 4.657-2.01 1.887.145-.175.285-.353.428-.53.595-.771 1.038-1.648 1.448-2.528.287-.655.38-1.356.432-2.06.017-.351.017-.703.005-1.054.004-.073-.015-.087.052-.018l4.196-3.559c.004.985-.522 1.866-.951 2.72-.947 1.72-1.783 3.5-2.635 5.268-.752 1.508-1.143 3.132-1.344 4.794-.093.925-.127 1.99.57 2.698.471.351 1.08.329 1.642.337 1.1-.38 1.938-1.276 2.845-1.973.704-.58 1.45-1.12 2.115-1.747.236-.223.912-.927.68-.7-2.997 2.93-4.183 4.242-2.444 2.353 1.807-2.058 3.806-3.916 5.745-5.855 1.086-1.086-2.173 2.172-3.266 3.25-.36.356.7-.73 1.048-1.097.851-.966 1.6-2.014 2.359-3.052a8.882 8.882 0 0 0 1.087-1.522c.978-1.59 4.561-5.524 4.393-3.222-.5 1.13-1.087 2.22-1.578 3.357-.704 1.54-1.232 3.16-1.662 4.796-.217 1.13-.558 2.294-.36 3.45.347.854 1.434.477 2.113.3 2.056-.652 3.8-1.987 5.542-3.22 1.856-1.328 3.56-2.846 5.215-4.413-6.1 5.932-3.247 3.452-2.174 1.908.367-.53.676-1.11.999-1.668.316-.601.657-1.24.72-1.928-.28-.499-.837-.298-1.269-.19-1.99.904-5.794 5.057.856-1.51-1.179 1.18-2.112 2.548-2.946 3.983-.818 1.37-1.301 2.867-1.567 4.43-.24 1.267-.11 2.484.314 3.69.39 1.054 1.19 1.494 2.233 1.703 1.794.361 3.38-.19 4.961-.993 1.068-.595 1.979-1.379 2.876-2.196.31-.281 1.222-1.143.93-.842a124 124 0 0 1-2.876 2.855c-.296.287.568-.597.853-.895 1.196-1.272 2.286-2.637 3.412-3.97.463-.579.9-1.178 1.371-1.75 1.093-1.882 2.716-3.56 4.593-4.669.733.058.924.633.982 1.297-.132 1.29-.671 2.51-1.143 3.708-.505 1.339-1.142 2.62-1.763 3.907-.218.47-.404.954-.58 1.442-1.548-1.66-.157-.647-4.25 3.282-.082.08.123-.195.187-.291.288-.432.296-.425.635-.867 1.344-1.786 2.664-3.583 4.092-5.304 1.588-2.581 12.768-13.312 4.375-5.004 2.142-2.21 4.22-4.585 6.867-6.207.649-.468.975-.264 1.111.547.068 1.229-.393 2.417-.768 3.567-.787 2.01-1.409 4.073-1.973 6.154-.417 1.672-.88 3.37-.881 5.104.21 1.358.549 1.551 1.863 1.36 2.349-.872 4.35-2.432 6.3-3.963.435-.366.874-.725 1.304-1.096.44-.38.882-.76 1.306-1.158.442-.413 1.722-1.7 1.291-1.275-5.075 5.003-1.259 1.12-.093-.291 2.19-2.796 4.082-5.812 5.871-8.875 1.892-3.438 3.84-6.844 5.78-10.255 1.804-3.193 3.571-6.396 5.02-9.767.48-1.557 1.273-3.02 1.683-4.597.014-.42.031-.139-.004-.09-.176.244-.544.554-.755.772 6.507-6.97 2.698-2.562 1.49-.757-.146.217-1.41 2.23-1.517 2.399-2.248 3.391-4.108 7.017-5.977 10.625-2.402 4.543-4.48 9.236-6.133 14.1-1.066 3.538-1.992 7.066-1.65 10.78.505 2.902 2.224 4.562 4.536 6.18 2.773 1.799 5.825 2.864 9.045 3.501 3.916.774 7.829.365 11.718-.299 3.765-.859 7.503-2.186 10.828-4.183.717-.43 1.39-.928 2.084-1.392L180 46.877l-3.09 4.136-2.074 1.56c-.711.458-1.402.95-2.133 1.374-3.392 1.972-7.167 3.288-10.988 4.118-3.954.656-7.938 1.024-11.91.227-3.285-.678-6.405-1.785-9.243-3.612-2.436-1.706-4.28-3.468-4.847-6.518-.058-.51-.158-1.017-.174-1.53-.096-3.237.985-6.45 1.807-9.53 1.646-4.88 3.697-9.595 6.085-14.16 1.825-3.578 3.617-7.19 5.815-10.558 2.199-3.507 4.178-6.665 7.555-9.34.63-.517 1.584-.956 1.772.231-.146 1.693-1.42 3.172-1.756 4.828-1.444 3.412-3.245 6.638-5.051 9.868-1.934 3.405-3.89 6.796-5.754 10.24-1.76 3.084-3.657 6.1-5.805 8.93-3.334 4.137-7.169 7.873-11.26 11.258-2.03 1.56-4.13 3.254-6.654 3.902-1.603.036-2.151-.423-2.5-1.986-.082-1.792.43-3.553.847-5.28.56-2.071 1.123-4.143 1.912-6.143.359-1.073.79-2.196.84-3.33 0-.077-.033-.16.001-.229.042-.08.228.049.236.14.007.081-.523.21-.509.3-1.773 1.154-5.524 4.79.888-1.418-10.164 10.267-2.817 2.839-1.459 1.485.262-.26-.523.52-.768.795-.776.869-1.448 1.829-2.197 2.72a67.61 67.61 0 0 0-4.014 5.227c-1.407 1.717-3.556 6.908-5.366 4.67.156-.533.398-1.038.608-1.551.588-1.307 1.324-2.549 1.802-3.906.484-1.134.938-2.313 1.212-3.513.044-.2.117-.863-.104-.4-1.849 1.81 5.305-5.176 3.173-3.224-.242.728-.988 1.206-1.357 1.874-1.104 1.398-2.315 2.717-3.477 4.067-2.888 3.095-5.787 6.38-9.475 8.54-1.697.764-3.44 1.248-5.306.83-1.192-.309-2.129-.915-2.624-2.094-.456-1.275-.72-2.551-.477-3.91.227-1.61.656-3.169 1.462-4.596.795-1.468 1.701-2.87 2.851-4.089 1.772-1.767 4.253-5.12 7.104-6.006.789-.101 1.453.113 1.918.792.23.765-.199 1.566-.529 2.25-1.614 3.006-3.683 5.21-6.408 7.517-1.66 1.539-3.379 3.018-5.237 4.316-1.81 1.257-3.62 2.622-5.789 3.179-1.078.183-2.222.267-2.773-.874-.281-1.244.006-2.454.262-3.688.398-1.653.905-3.297 1.6-4.849.444-1.118.951-2.214 1.53-3.267 1.23-1.509 5.095-5.907 4.375-3.69-.273.6-.615 1.184-1.078 1.656-.838.99-1.51 2.122-2.357 3.112-2.364 2.513-9.678 9.647-2.26 2.29.458-.454-1.786 1.896-1.304 1.429-2.49 2.744-5.062 5.443-8.009 7.7-.951.761-1.919 1.737-3.203 1.8-.703-.04-1.404-.141-1.948-.632-.799-.839-.975-1.97-.853-3.098.174-1.714.532-3.396 1.262-4.97.872-1.748 1.658-3.544 2.607-5.252.383-.768.915-1.598 1.024-2.45 1.384-1.273 3.895-5.546 4.258-3.7.005.37-.009.742-.016 1.113-.019.748-.078 1.504-.329 2.215-.325.952-.87 1.822-1.383 2.684-2.27 2.844-4.966 5.311-7.623 7.787-2.143 1.903-4.363 3.718-6.742 5.323-1.882 1.277-3.926 2.792-6.301 2.735-1.154-.178-1.97-.529-2.35-1.715-.249-1.453-.013-2.956-.001-4.422.179-2.4.424-4.834 1.29-7.1 1.114-2.696 2.275-5.394 3.877-7.844 1.92-2.99 3.88-5.946 6.031-8.778a247.692 247.692 0 0 1 5.953-7.77c1.344-1.68 2.72-3.332 4.014-5.05 2.35-2.752 4.903-5.324 7.573-7.766 1.055-.91 2.147-1.874 3.535-2.213.748-.117 1.403-.043 1.714.73.299.924-.019 1.972-.072 2.919a18.888 18.888 0 0 1-1.536 5.128c-1.259 2.456-2.936 4.614-4.839 6.612-4.115 4.272-8.215 8.571-12.535 12.638-3.801 3.494-7.699 6.878-11.818 9.996-3.712 2.733-7.49 5.443-11.596 7.558-3.72 1.705-7.596 2.97-11.45 4.332-4.84 1.865-9.547 4.038-13.884 6.912-2.193 1.542-2.913 1.984-4.995 3.712-.847.702-1.596 1.523-2.482 2.176-.402.296 1.367-1.458 1.02-1.1-2.781 2.872-2.162 2.243-4.786 5.29-3.493 4.572-6.59 9.361-8.151 14.965-.887 3.674-1.599 7.62.79 10.901.31.258.584.566.93.772 2.256 1.343 5.136-.002 7.24-.945.588-.345 1.199-.654 1.765-1.034.6-.402 2.009-1.975 1.73-1.308-.388.92-1.299 1.537-2.085 2.154-.61.478 1.046-1.146 1.55-1.735 1.648-1.924 1.626-1.982 3.15-4.072 3.79-5.578 7.307-11.346 10.458-17.31 3.408-6.74 6.549-13.61 9.14-20.711 2.15-5.243 4.045-10.587 6.333-15.772 1.774-3.982 3.694-7.896 5.702-11.765 1.654-3.205 3.239-6.446 4.97-9.61 2.265-4.209 2.98-6.112 7.18-9.532.652-.295 1.125-.179 1.43.489.34 1.291-.374 2.952-.399 4.26-.413 2.415-.961 4.825-1.969 7.07-1.163 2.672-2.488 5.278-4.442 7.471-3.385 3.882-7.039 7.57-11.303 10.482-2.656 1.753-5.36 3.437-8.18 4.915-1.77.885-3.611 1.705-5.162 2.952l3.326-4.445z" fill="#fff"/></svg>