<svg xmlns="http://www.w3.org/2000/svg" width="48" height="48" viewBox="0 0 47.999998 47.999996"><path fill="#0be" d="M-.203 0h48v48h-48z"/><path d="M24.53 19.32c1.001-.723 1.977-1.485 2.956-2.24 2.325-1.802 4.625-3.636 6.926-5.468l-1.361 1.83c-2.332 1.863-4.663 3.729-7.01 5.574-1.012.791-2.008 1.618-3.08 2.325l1.569-2.02zm11.106-.71c-1.709 1.258-3.448 2.506-5.338 3.479-1.712.784-3.496 1.367-5.27 1.994-2.227.858-4.394 1.858-6.39 3.181-1.01.71-1.341.913-2.3 1.709-.39.323-.734.7-1.142 1.001-.185.136.63-.671.47-.506-1.28 1.322-.996 1.033-2.203 2.435-1.608 2.104-3.034 4.309-3.752 6.888-.408 1.691-.736 3.507.363 5.018.143.118.27.26.429.355 1.038.618 2.364-.001 3.332-.435.27-.159.552-.301.813-.476.276-.185.924-.909.795-.602-.178.424-.597.707-.959.991-.28.22.481-.527.714-.798.758-.886.748-.913 1.45-1.875a84.042 84.042 0 0 0 4.813-7.967c1.569-3.103 3.014-6.265 4.207-9.533.99-2.413 1.862-4.873 2.915-7.26.816-1.832 1.7-3.634 2.624-5.414.761-1.476 1.491-2.967 2.288-4.424 1.042-1.937 1.372-2.813 3.305-4.387.3-.136.517-.082.658.225.156.594-.172 1.359-.184 1.961-.19 1.112-.442 2.22-.906 3.254-.535 1.23-1.145 2.43-2.045 3.439-1.558 1.786-3.24 3.484-5.202 4.824-1.223.807-2.467 1.582-3.765 2.262-.815.408-1.662.785-2.376 1.36l1.53-2.046c.727-.522 1.568-.88 2.37-1.274a43.035 43.035 0 0 0 3.718-2.251c.215-.157.432-.31.644-.47.343-.261.922-.728 1.243-1.016.194-.175.753-.724.567-.541-1.51 1.486-1.51 1.512-.705.607.9-.985 1.529-2.152 2.069-3.362.464-1.019.74-2.109.941-3.206.057-.607.229-1.228.185-1.842-.065-.228-.2.029-.27.12 2.888-2.997 1.621-1.69 1.114-.876-.346.556-.639 1.145-.95 1.72-.805 1.46-1.544 2.954-2.307 4.434a102.605 102.605 0 0 0-2.658 5.424c-1.077 2.396-1.982 4.864-2.974 7.296-1.211 3.286-2.693 6.462-4.256 9.593-1.416 2.733-3.007 5.371-4.716 7.93-1.269 1.884-2.832 3.512-4.502 5.05-.454.418-1.127.751-1.662 1.048-1.058.465-2.442 1.026-3.544.34-.179-.11-.321-.272-.482-.409-1.171-1.581-.89-3.482-.478-5.276.59-2.053 1.558-3.996 2.79-5.74.308-.437.645-.852.967-1.277 1.87-2.205 3.86-4.343 6.1-6.178.969-.793 1.312-1.002 2.33-1.71 2.027-1.326 4.22-2.329 6.474-3.194 1.782-.625 3.57-1.217 5.278-2.031 1.856-.988 3.58-2.213 5.266-3.465" fill="#fff"/></svg>