<svg viewBox="0 0 30.000001 44.325972" height="44.326" width="30"><path d="M17.032 17.381c1-.722 1.974-1.481 2.95-2.236 2.322-1.798 4.617-3.63 6.914-5.458l-1.359 1.826c-2.328 1.86-4.653 3.725-6.997 5.565-1.009.792-2.004 1.615-3.075 2.32zm11.544-1.03c-1.706 1.255-3.88 2.863-5.787 3.794-1.69.824-3.5 1.336-5.26 1.99-2.234.829-4.4 1.836-6.38 3.175-1.02.69-1.329.922-2.294 1.706a18.266 18.266 0 0 0-2.87 2.925c-1.645 2.07-3.064 4.29-3.746 6.875-.443 1.68-.768 3.526.363 5.009.113.147.269.26.428.354 1.036.617 2.375.034 3.326-.434 1.2-.592 2.143-1.799 2.807-2.755a75.963 75.963 0 0 0 4.805-7.952c1.036-1.986 2.914-6.143 4.2-9.516.914-2.4 1.854-4.865 2.909-7.246a99.193 99.193 0 0 1 2.62-5.405c.761-1.472 1.493-2.959 2.282-4.416C26.986 2.6 27.551 1.4 29.28.077c.201-.154.558-.074.657.224.142.434-.096 1.403-.184 1.958-.175 1.111-.447 2.213-.904 3.247-.541 1.225-1.15 2.42-2.041 3.433-1.562 1.777-3.226 3.49-5.193 4.816-1.212.817-2.458 1.588-3.758 2.258-.809.416-1.66.783-2.372 1.356l1.528-2.042c.725-.52 1.573-.862 2.365-1.271 1.286-.665 2.514-1.434 3.711-2.247.22-.15.432-.31.643-.47.343-.26.735-.542 1.103-.947.896-.987 1.522-2.15 2.065-3.356.46-1.019.81-2.365.94-3.2.046-.296.09-.668.14-.994-.32.566-1.595 3.069-2.365 4.543a106.084 106.084 0 0 0-2.652 5.414c-1.079 2.39-2.026 4.837-2.969 7.283a110.224 110.224 0 0 1-4.248 9.576 82.05 82.05 0 0 1-4.707 7.915c-1.262 1.883-2.828 3.505-4.494 5.04-.454.418-1.109.783-1.659 1.046-1.04.498-2.438 1.024-3.537.34a1.802 1.802 0 0 1-.481-.408c-1.204-1.553-.941-3.489-.478-5.267.537-2.063 1.555-3.989 2.785-5.73.307-.435.624-.865.965-1.274 1.848-2.216 3.852-4.335 6.089-6.166.967-.792 1.297-1.02 2.326-1.707 1.868-1.247 4.939-2.668 6.462-3.189 1.139-.39 3.93-1.35 5.268-2.027 1.618-.818 4.028-2.537 5.716-3.78-.688.866-.993 1.162-1.424 1.9z"/></svg>